<svg width="83" height="40" viewBox="0 0 83 40" fill="none" xmlns="http://www.w3.org/2000/svg">
<path d="M22.8732 17.7717H20.881C20.8242 17.445 20.7194 17.1555 20.5667 16.9034C20.414 16.6477 20.224 16.4311 19.9968 16.2536C19.7695 16.076 19.5103 15.9428 19.2191 15.854C18.9314 15.7617 18.6207 15.7156 18.2869 15.7156C17.6938 15.7156 17.1683 15.8647 16.7102 16.163C16.2521 16.4577 15.8934 16.891 15.6342 17.4627C15.375 18.0309 15.2453 18.7251 15.2453 19.5455C15.2453 20.38 15.375 21.0831 15.6342 21.6548C15.897 22.223 16.2556 22.6527 16.7102 22.9439C17.1683 23.2315 17.6921 23.3754 18.2816 23.3754C18.6083 23.3754 18.9137 23.3327 19.1978 23.2475C19.4854 23.1587 19.7429 23.0291 19.9701 22.8587C20.201 22.6882 20.3945 22.4787 20.5507 22.2301C20.7105 21.9815 20.8206 21.6974 20.881 21.3778L22.8732 21.3885C22.7986 21.907 22.637 22.3935 22.3884 22.848C22.1434 23.3026 21.822 23.7038 21.4243 24.0518C21.0266 24.3963 20.5614 24.6662 20.0287 24.8615C19.496 25.0533 18.9048 25.1491 18.2549 25.1491C17.2961 25.1491 16.4403 24.9272 15.6875 24.4833C14.9346 24.0394 14.3416 23.3984 13.9083 22.5604C13.4751 21.7223 13.2585 20.7173 13.2585 19.5455C13.2585 18.37 13.4769 17.3651 13.9137 16.5305C14.3505 15.6925 14.9453 15.0515 15.6981 14.6076C16.4509 14.1637 17.3032 13.9418 18.2549 13.9418C18.8622 13.9418 19.4268 14.027 19.9488 14.1974C20.4708 14.3679 20.936 14.6183 21.3444 14.9485C21.7528 15.2752 22.0884 15.6765 22.3512 16.1523C22.6175 16.6246 22.7915 17.1644 22.8732 17.7717ZM28.1666 25.1598C27.3676 25.1598 26.6751 24.984 26.0892 24.6325C25.5032 24.2809 25.0487 23.7891 24.7255 23.157C24.4059 22.5249 24.2461 21.7862 24.2461 20.9411C24.2461 20.0959 24.4059 19.3555 24.7255 18.7198C25.0487 18.0842 25.5032 17.5906 26.0892 17.239C26.6751 16.8874 27.3676 16.7116 28.1666 16.7116C28.9656 16.7116 29.6581 16.8874 30.244 17.239C30.8299 17.5906 31.2827 18.0842 31.6023 18.7198C31.9255 19.3555 32.087 20.0959 32.087 20.9411C32.087 21.7862 31.9255 22.5249 31.6023 23.157C31.2827 23.7891 30.8299 24.2809 30.244 24.6325C29.6581 24.984 28.9656 25.1598 28.1666 25.1598ZM28.1772 23.6151C28.6105 23.6151 28.9727 23.4961 29.2639 23.2582C29.5551 23.0167 29.7717 22.6935 29.9138 22.2887C30.0593 21.8839 30.1321 21.4329 30.1321 20.9357C30.1321 20.435 30.0593 19.9822 29.9138 19.5774C29.7717 19.169 29.5551 18.8441 29.2639 18.6026C28.9727 18.3612 28.6105 18.2404 28.1772 18.2404C27.7334 18.2404 27.364 18.3612 27.0693 18.6026C26.7781 18.8441 26.5597 19.169 26.4141 19.5774C26.2721 19.9822 26.201 20.435 26.201 20.9357C26.201 21.4329 26.2721 21.8839 26.4141 22.2887C26.5597 22.6935 26.7781 23.0167 27.0693 23.2582C27.364 23.4961 27.7334 23.6151 28.1772 23.6151ZM35.6519 20.206V25H33.7237V16.8182H35.5667V18.2085H35.6626C35.8508 17.7504 36.1509 17.3864 36.5628 17.1165C36.9783 16.8466 37.4914 16.7116 38.1022 16.7116C38.6669 16.7116 39.1587 16.8324 39.5777 17.0739C40.0003 17.3153 40.327 17.6651 40.5578 18.1232C40.7922 18.5813 40.9076 19.1371 40.9041 19.7905V25H38.9758V20.0888C38.9758 19.5419 38.8338 19.114 38.5497 18.805C38.2691 18.4961 37.8803 18.3416 37.3831 18.3416C37.0458 18.3416 36.7457 18.4162 36.4829 18.5653C36.2237 18.7109 36.0195 18.9222 35.8703 19.1992C35.7247 19.4762 35.6519 19.8118 35.6519 20.206ZM46.9499 16.8182V18.3097H42.2464V16.8182H46.9499ZM43.4076 14.858H45.3359V22.5391C45.3359 22.7983 45.375 22.9972 45.4531 23.1357C45.5348 23.2706 45.6413 23.3629 45.7727 23.4126C45.9041 23.4624 46.0497 23.4872 46.2095 23.4872C46.3302 23.4872 46.4403 23.4783 46.5397 23.4606C46.6427 23.4428 46.7208 23.4268 46.7741 23.4126L47.099 24.9201C46.996 24.9556 46.8487 24.9947 46.6569 25.0373C46.4687 25.0799 46.2379 25.1048 45.9644 25.1119C45.4815 25.1261 45.0465 25.0533 44.6594 24.8935C44.2723 24.7301 43.9652 24.478 43.7379 24.1371C43.5142 23.7962 43.4041 23.37 43.4076 22.8587V14.858ZM50.9169 25.1651C50.3985 25.1651 49.9315 25.0728 49.516 24.8881C49.1041 24.6999 48.7774 24.4229 48.5359 24.0572C48.298 23.6914 48.179 23.2404 48.179 22.7042C48.179 22.2425 48.2642 21.8608 48.4347 21.5589C48.6052 21.2571 48.8378 21.0156 49.1325 20.8345C49.4272 20.6534 49.7593 20.5167 50.1286 20.4244C50.5015 20.3285 50.8868 20.2592 51.2845 20.2166C51.7639 20.1669 52.1527 20.1225 52.451 20.0835C52.7493 20.0408 52.966 19.9769 53.1009 19.8917C53.2394 19.8029 53.3086 19.6662 53.3086 19.4815V19.4496C53.3086 19.0483 53.1897 18.7376 52.9517 18.5174C52.7138 18.2972 52.3711 18.1871 51.9237 18.1871C51.4514 18.1871 51.0767 18.2901 50.7998 18.4961C50.5263 18.7021 50.3417 18.9453 50.2458 19.2259L48.4454 18.9702C48.5874 18.473 48.8218 18.0575 49.1485 17.7237C49.4752 17.3864 49.8747 17.1342 50.347 16.9673C50.8193 16.7969 51.3413 16.7116 51.913 16.7116C52.3072 16.7116 52.6996 16.7578 53.0902 16.8501C53.4809 16.9425 53.8378 17.0952 54.1609 17.3082C54.4841 17.5178 54.7433 17.8036 54.9386 18.1658C55.1375 18.5281 55.2369 18.9808 55.2369 19.5241V25H53.3832V23.8761H53.3193C53.2021 24.1033 53.037 24.3164 52.8239 24.5153C52.6144 24.7106 52.3498 24.8686 52.0302 24.9893C51.7142 25.1065 51.3431 25.1651 50.9169 25.1651ZM51.4177 23.7482C51.8047 23.7482 52.1403 23.6719 52.4244 23.5192C52.7085 23.3629 52.9269 23.157 53.0796 22.9013C53.2358 22.6456 53.314 22.3668 53.314 22.065V21.1009C53.2536 21.1506 53.1506 21.1967 53.005 21.2393C52.863 21.282 52.7032 21.3192 52.5256 21.3512C52.3481 21.3832 52.1723 21.4116 51.9983 21.4364C51.8243 21.4613 51.6733 21.4826 51.5455 21.5004C51.2579 21.5394 51.0004 21.6033 50.7731 21.6921C50.5459 21.7809 50.3665 21.9052 50.2351 22.065C50.1037 22.2212 50.038 22.4237 50.038 22.6722C50.038 23.0273 50.1677 23.2955 50.4269 23.4766C50.6861 23.6577 51.0164 23.7482 51.4177 23.7482ZM60.7447 25.1598C59.928 25.1598 59.2266 24.9805 58.6407 24.6218C58.0583 24.2631 57.6091 23.7678 57.293 23.1357C56.9805 22.5 56.8243 21.7685 56.8243 20.9411C56.8243 20.1101 56.9841 19.3768 57.3037 18.7411C57.6233 18.1019 58.0743 17.6048 58.6566 17.2496C59.2426 16.891 59.9351 16.7116 60.7341 16.7116C61.3981 16.7116 61.9858 16.8342 62.4972 17.0792C63.0121 17.3207 63.4223 17.6634 63.7277 18.1072C64.0331 18.5476 64.2071 19.0625 64.2497 19.652H62.4066C62.3321 19.2578 62.1545 18.9293 61.874 18.6665C61.597 18.4002 61.2259 18.267 60.7607 18.267C60.3665 18.267 60.0203 18.3736 59.722 18.5866C59.4237 18.7962 59.1911 19.098 59.0242 19.4922C58.8608 19.8864 58.7792 20.3587 58.7792 20.9091C58.7792 21.4666 58.8608 21.946 59.0242 22.3473C59.1875 22.745 59.4166 23.0522 59.7113 23.2688C60.0096 23.4819 60.3594 23.5884 60.7607 23.5884C61.0448 23.5884 61.2987 23.5352 61.5224 23.4286C61.7497 23.3185 61.9397 23.1605 62.0924 22.9545C62.2451 22.7486 62.3498 22.4982 62.4066 22.2035H64.2497C64.2035 22.7823 64.0331 23.2955 63.7383 23.7429C63.4436 24.1868 63.0423 24.5348 62.5345 24.7869C62.0267 25.0355 61.4301 25.1598 60.7447 25.1598ZM69.9186 16.8182V18.3097H65.2152V16.8182H69.9186ZM66.3764 14.858H68.3046V22.5391C68.3046 22.7983 68.3437 22.9972 68.4218 23.1357C68.5035 23.2706 68.61 23.3629 68.7414 23.4126C68.8728 23.4624 69.0184 23.4872 69.1782 23.4872C69.299 23.4872 69.409 23.4783 69.5085 23.4606C69.6115 23.4428 69.6896 23.4268 69.7429 23.4126L70.0678 24.9201C69.9648 24.9556 69.8174 24.9947 69.6257 25.0373C69.4375 25.0799 69.2066 25.1048 68.9332 25.1119C68.4502 25.1261 68.0152 25.0533 67.6282 24.8935C67.2411 24.7301 66.9339 24.478 66.7066 24.1371C66.4829 23.7962 66.3728 23.37 66.3764 22.8587V14.858Z" fill="white"/>
</svg>
